<svg width="197" height="41" xmlns="http://www.w3.org/2000/svg"><g id="Page-1" stroke="none" stroke-width="1" fill="none" fill-rule="evenodd"><g id="ca-logo-full" fill-rule="nonzero"><path d="M15.2 1.244L.367 11.119v18.897l16.965-11.3c1.181-.783 2.137-2.57 2.137-3.985V3.53c0-2.833-1.912-3.86-4.27-2.286" id="Fill-25" fill="#BBA0CB"/><path d="M.368 11.12l14.189 9.446 2.776 1.85c1.182.786 2.138 2.57 2.138 3.988v11.201c0 1.931-.89 3.022-2.203 3.022-.613 0-1.318-.237-2.068-.736L.369 30.016V11.12z" id="Combined-Shape" fill="#7F3F97"/><path d="M25.04 1.244l14.831 9.875v18.897l-16.966-11.3c-1.179-.783-2.137-2.57-2.137-3.985V3.53c0-2.833 1.914-3.86 4.271-2.286" id="Fill-31" fill="#BBA0CB"/><path d="M39.871 11.12v18.895l-.007-.004.007.005-14.832 9.875c-.75.5-1.454.736-2.067.736-1.313 0-2.203-1.09-2.203-3.022v-11.2c0-1.419.957-3.203 2.137-3.99l2.777-1.849L39.87 11.12z" id="Combined-Shape" fill="#7F3F97"/><path d="M123.232 14.499l3.393 8.256 2.644-8.256h2.67l-5.751 16.908h-2.671l1.915-5.384-4.988-11.524h2.788zm67.759-.166c4.446 0 5.397 2.345 5.397 6.029 0 .298-.007.603-.035.916-1.415.249-4.363.54-6.07.617l-2.178.098c.138 2.379 1.38 2.934 3.295 2.934 1.65 0 3.163-.16 4.433-.32l.222 1.964c-1.34.215-2.956.45-5.335.45-4.141 0-5.23-2.684-5.23-6.346 0-4.483 1.386-6.342 5.5-6.342zm-137.938 0c1.305 0 2.305.187 3.137.43l-.209 1.95c-.687-.125-1.415-.257-2.144-.257-3.18 0-3.55.855-3.565 3.885v.215c0 3.032.132 4.301 3.58 4.301.715 0 1.415-.132 2.123-.27l.236 2.005c-1.048.242-2.29.43-3.837.43-4.122 0-4.78-3.115-4.78-6.466 0-4.046.937-6.223 5.46-6.223zm27.982-4.606v13.945c0 .812-.035 1.519-.105 2.268-1.38.778-3.24 1.082-4.856 1.082-4.059 0-5.766-1.505-5.766-6.347 0-4.767 1.631-6.342 5.4-6.342.858 0 1.858.133 2.697.34V9.727h2.63zm7.745 4.606c4.447 0 5.397 2.345 5.397 6.029 0 .298-.007.603-.034.916-1.415.249-4.364.54-6.07.617l-2.18.098c.14 2.379 1.38 2.934 3.296 2.934 1.65 0 3.164-.16 4.433-.32l.222 1.964c-1.34.215-2.955.45-5.335.45-4.141 0-5.231-2.684-5.231-6.346 0-4.483 1.387-6.342 5.502-6.342zm12.371 0c2.72 0 4.961.743 4.961 3.892v5.446c0 .812-.035 1.52-.104 2.268-1.38.778-3.22 1.083-5.523 1.083-3.344 0-4.655-1.31-4.655-3.85 0-2.158.936-3.51 3.323-3.872 1.36-.209 2.852-.263 4.378-.325 0-1.715-.749-2.574-2.629-2.574-1.478 0-3.032.152-4.295.311l-.216-1.928c1.332-.223 2.95-.45 4.76-.45zm69.515 0c4.446 0 5.397 2.345 5.397 6.029 0 .298-.008.603-.035.916-1.415.249-4.363.54-6.07.617l-2.178.098c.138 2.379 1.38 2.934 3.294 2.934 1.651 0 3.164-.16 4.434-.32l.222 1.964c-1.339.215-2.956.45-5.335.45-4.142 0-5.23-2.684-5.23-6.346 0-4.483 1.386-6.342 5.501-6.342zm-34.755.166l2.186 9.83 2.143-7.235c.327-1.097.902-1.617 1.81-1.617.91 0 1.485.513 1.812 1.617l2.109 7.208 2.206-9.803h2.595l-2.775 10.796c-.305 1.178-.965 1.726-1.942 1.726-.985 0-1.624-.555-1.985-1.726l-2.075-6.744-2.066 6.737c-.361 1.171-1 1.733-1.992 1.733-.991 0-1.657-.555-1.963-1.74L133.22 14.5h2.69zm-72.771-.166c4.045 0 5.502 1.797 5.502 6.341 0 4.55-1.457 6.347-5.502 6.347s-5.501-1.719-5.501-6.347c0-4.62 1.456-6.34 5.5-6.34zm51.314 0c4.35 0 4.794 2.033 4.794 4.6v7.923h-2.636v-7.638c0-1.971-.346-2.803-2.879-2.803-.792 0-1.72.139-2.256.416a16.238 16.238 0 00-.076 1.658v8.367h-2.629v-9.172c0-.812.036-1.52.105-2.268 1.4-.686 3.24-1.083 5.577-1.083zm40.87-4.606v5.072a10.092 10.092 0 013.053-.466c4.27 0 4.801 1.947 4.822 4.436v8.087h-2.637v-7.61c0-1.971-.36-2.804-2.907-2.804-.79 0-1.65.18-2.33.486v9.928h-2.637V9.726h2.636zm27.95 4.606c.41 0 .79.014 1.151.048l-.208 2.096a7.628 7.628 0 00-.944-.05c-.79 0-1.72.14-2.254.418a15.69 15.69 0 00-.077 1.658v8.353h-2.629v-9.172c0-.812.034-1.52.104-2.268 1.38-.777 3.24-1.083 4.856-1.083zm-79.743 6.361c-1.09.042-2.352.063-3.358.3-1.284.298-1.742.692-1.742 2.136 0 1.548.861 1.921 2.443 1.921.804 0 1.803-.062 2.58-.423a15.67 15.67 0 00.077-1.657v-2.277zm-27.207-4.321c-3.296 0-3.358 1.81-3.358 4.302l.002.348c.022 2.131.31 3.974 3.106 3.974.791 0 1.721-.14 2.255-.416.055-.5.076-1.104.076-1.66V16.72a7.08 7.08 0 00-2.08-.347zm-13.184.054c-2.234 0-2.845.84-2.845 4.247 0 3.413.61 4.253 2.845 4.253 2.234 0 2.858-.978 2.858-4.253 0-3.268-.624-4.247-2.858-4.247zm25.64-.11c-2.602 0-2.955 1.644-2.955 3.878l2.483-.118a41.43 41.43 0 003.19-.278c.022-.16.03-.416.03-.575 0-1.88-.695-2.907-2.748-2.907zm81.886 0c-2.603 0-2.956 1.644-2.956 3.878l2.483-.118a41.387 41.387 0 003.191-.278c.022-.16.03-.416.03-.575 0-1.88-.696-2.907-2.748-2.907zm20.325 0c-2.602 0-2.956 1.644-2.956 3.878l2.484-.118a41.36 41.36 0 003.19-.278c.022-.16.029-.416.029-.575 0-1.88-.695-2.907-2.747-2.907z" id="Combined-Shape" fill="#461F59"/></g></g></svg>