<?xml version="1.0" encoding="utf-8"?>
<!-- Generator: Adobe Illustrator 24.2.3, SVG Export Plug-In . SVG Version: 6.00 Build 0)  -->
<svg version="1.1" id="Layer_1" xmlns="http://www.w3.org/2000/svg" xmlns:xlink="http://www.w3.org/1999/xlink" x="0px" y="0px"
	 viewBox="0 0 147 149.2" style="enable-background:new 0 0 147 149.2;" xml:space="preserve">
<style type="text/css">
	.st0{fill:#BCA1CC;}
	.st1{fill:#7F3F98;}
</style>
<g>
	<path class="st0" d="M55.2,2.7L0,39.5v70.3l63.1-42c4.4-2.9,7.9-9.6,7.9-14.8V11.2C71.1,0.7,64-3.1,55.2,2.7"/>
	<path class="st1" d="M52.8,74.6L0,109.8l55.2,36.7c2.8,1.9,5.4,2.7,7.7,2.7c4.9,0,8.2-4.1,8.2-11.2V96.3c0-5.3-3.6-11.9-7.9-14.8
		L52.8,74.6"/>
	<polyline class="st1" points="0,39.5 0,39.5 0,109.8 56.5,77.1 0,39.5 	"/>
	<path class="st0" d="M91.8,2.7L147,39.5v70.3l-63.1-42c-4.4-2.9-7.9-9.6-7.9-14.8V11.2C75.9,0.7,83-3.1,91.8,2.7"/>
	<path class="st1" d="M94.2,74.6l-10.3,6.9c-4.4,2.9-7.9,9.6-7.9,14.8V138c0,7.2,3.3,11.2,8.2,11.2c2.3,0,4.9-0.9,7.7-2.7l55.2-36.7
		L94.2,74.6"/>
	<polyline class="st1" points="147,39.5 90.3,77.2 147,109.8 147,39.5 	"/>
</g>
</svg>
